<svg xmlns="http://www.w3.org/2000/svg" xmlns:xlink="http://www.w3.org/1999/xlink" width="500" zoomAndPan="magnify" viewBox="0 0 375 374.999991" height="500" preserveAspectRatio="xMidYMid meet" version="1.2"><defs><clipPath id="f57e0140f3"><path d="M 206 104.890625 L 289 104.890625 L 289 269.890625 L 206 269.890625 Z M 206 104.890625 "/></clipPath><clipPath id="014d8c8e56"><path d="M 288 104.890625 L 371.800781 104.890625 L 371.800781 269.890625 L 288 269.890625 Z M 288 104.890625 "/></clipPath></defs><g id="3e3bb9c1fd"><path style=" stroke:none;fill-rule:nonzero;fill:#3f3f3d;fill-opacity:1;" d="M 20.667969 117.75 C 21.03125 117.75 21.339844 117.625 21.578125 117.375 C 21.820312 117.125 21.945312 116.816406 21.945312 116.453125 C 21.945312 116.109375 21.820312 115.8125 21.578125 115.550781 C 21.339844 115.304688 21.03125 115.179688 20.667969 115.179688 C 20.320312 115.179688 20.011719 115.304688 19.753906 115.550781 C 19.496094 115.800781 19.371094 116.109375 19.371094 116.453125 C 19.371094 116.816406 19.496094 117.125 19.753906 117.375 C 20.011719 117.625 20.3125 117.75 20.667969 117.75 Z M 20.667969 117.75 "/><path style=" stroke:none;fill-rule:nonzero;fill:#3f3f3d;fill-opacity:1;" d="M 28.59375 131.960938 L 14.246094 131.960938 C 13.121094 131.960938 12.152344 131.921875 11.335938 131.84375 C 10.527344 131.769531 9.824219 131.664062 9.257812 131.507812 C 8.683594 131.363281 8.222656 131.171875 7.867188 130.933594 C 7.511719 130.695312 7.242188 130.414062 7.046875 130.089844 C 6.855469 129.761719 6.722656 129.390625 6.65625 128.96875 C 6.585938 128.546875 6.550781 128.074219 6.550781 127.566406 C 6.550781 127.210938 6.566406 126.867188 6.597656 126.53125 C 6.625 126.195312 6.675781 125.898438 6.722656 125.640625 L 4.886719 125.46875 C 4.808594 125.945312 4.75 126.445312 4.695312 126.953125 C 4.644531 127.460938 4.617188 127.894531 4.617188 128.257812 C 4.617188 128.777344 4.65625 129.273438 4.742188 129.753906 C 4.828125 130.234375 4.980469 130.695312 5.203125 131.105469 C 5.425781 131.527344 5.722656 131.910156 6.117188 132.257812 C 6.5 132.601562 6.992188 132.898438 7.597656 133.15625 C 8.203125 133.40625 8.921875 133.609375 9.757812 133.742188 C 10.605469 133.878906 11.59375 133.945312 12.726562 133.945312 L 30.625 133.945312 L 30.625 121.757812 L 28.59375 121.757812 Z M 28.59375 131.960938 "/><path style=" stroke:none;fill-rule:nonzero;fill:#3f3f3d;fill-opacity:1;" d="M 16.574219 117.75 C 16.929688 117.75 17.234375 117.625 17.484375 117.375 C 17.734375 117.125 17.859375 116.816406 17.859375 116.453125 C 17.859375 116.109375 17.734375 115.8125 17.484375 115.550781 C 17.234375 115.304688 16.9375 115.179688 16.574219 115.179688 C 16.207031 115.179688 15.917969 115.304688 15.660156 115.550781 C 15.398438 115.800781 15.273438 116.109375 15.273438 116.453125 C 15.273438 116.816406 15.398438 117.125 15.660156 117.375 C 15.917969 117.625 16.21875 117.75 16.574219 117.75 Z M 16.574219 117.75 "/><path style=" stroke:none;fill-rule:nonzero;fill:#3f3f3d;fill-opacity:1;" d="M 104.921875 125.238281 C 104.691406 124.75 104.414062 124.269531 104.078125 123.828125 C 103.742188 123.378906 103.335938 122.984375 102.886719 122.648438 C 102.421875 122.304688 101.914062 122.035156 101.347656 121.824219 C 100.78125 121.621094 100.15625 121.515625 99.464844 121.515625 C 99.136719 121.515625 98.78125 121.554688 98.386719 121.632812 C 97.992188 121.707031 97.589844 121.84375 97.167969 122.054688 C 96.742188 122.265625 96.300781 122.550781 95.859375 122.925781 C 95.417969 123.300781 94.984375 123.789062 94.554688 124.394531 C 94.128906 124.996094 93.714844 125.734375 93.332031 126.597656 C 92.9375 127.460938 92.582031 128.496094 92.253906 129.6875 C 92.140625 130.117188 91.96875 130.484375 91.746094 130.769531 C 91.527344 131.058594 91.277344 131.289062 90.988281 131.460938 C 90.699219 131.632812 90.402344 131.757812 90.074219 131.835938 C 89.746094 131.910156 89.421875 131.949219 89.09375 131.949219 L 41.058594 131.949219 C 40.523438 131.949219 40.082031 131.902344 39.734375 131.796875 C 39.386719 131.691406 39.109375 131.527344 38.90625 131.289062 C 38.707031 131.046875 38.5625 130.730469 38.476562 130.339844 C 38.390625 129.9375 38.351562 129.445312 38.351562 128.851562 L 38.351562 111.3125 L 36.324219 111.3125 L 36.324219 129.515625 C 36.324219 130.148438 36.390625 130.730469 36.535156 131.277344 C 36.679688 131.824219 36.910156 132.296875 37.226562 132.6875 C 37.542969 133.082031 37.964844 133.386719 38.484375 133.617188 C 39.003906 133.847656 39.628906 133.953125 40.378906 133.953125 L 89.410156 133.953125 C 89.410156 133.953125 89.488281 133.945312 89.527344 133.933594 C 89.851562 133.933594 90.179688 133.914062 90.476562 133.867188 C 90.84375 133.808594 91.179688 133.703125 91.488281 133.5625 C 91.792969 133.417969 92.082031 133.207031 92.34375 132.945312 C 92.601562 132.6875 92.84375 132.351562 93.0625 131.949219 C 93.429688 132.257812 93.851562 132.535156 94.332031 132.804688 C 94.800781 133.0625 95.320312 133.292969 95.871094 133.492188 C 96.417969 133.683594 97.003906 133.839844 97.617188 133.964844 C 98.234375 134.078125 98.859375 134.136719 99.503906 134.136719 C 100.578125 134.136719 101.5 133.964844 102.269531 133.628906 C 103.039062 133.292969 103.671875 132.839844 104.164062 132.285156 C 104.664062 131.730469 105.027344 131.097656 105.257812 130.386719 C 105.5 129.675781 105.613281 128.949219 105.613281 128.191406 C 105.613281 127.742188 105.558594 127.261719 105.441406 126.753906 C 105.328125 126.246094 105.152344 125.734375 104.921875 125.246094 Z M 103.566406 130.167969 C 103.335938 130.617188 103.011719 130.980469 102.585938 131.269531 C 102.164062 131.558594 101.644531 131.769531 101.050781 131.910156 C 100.445312 132.046875 99.78125 132.113281 99.039062 132.113281 C 98.558594 132.113281 98.042969 132.066406 97.503906 131.960938 C 96.964844 131.855469 96.457031 131.71875 95.976562 131.546875 C 95.484375 131.375 95.0625 131.183594 94.695312 130.972656 C 94.332031 130.761719 94.0625 130.539062 93.910156 130.328125 C 94.128906 129.410156 94.417969 128.527344 94.765625 127.703125 C 95.109375 126.878906 95.515625 126.15625 95.984375 125.535156 C 96.445312 124.910156 96.964844 124.421875 97.53125 124.046875 C 98.097656 123.683594 98.714844 123.492188 99.378906 123.492188 C 100.117188 123.492188 100.769531 123.664062 101.335938 124.011719 C 101.90625 124.355469 102.375 124.785156 102.761719 125.304688 C 103.136719 125.824219 103.421875 126.367188 103.625 126.964844 C 103.816406 127.546875 103.914062 128.085938 103.914062 128.554688 C 103.914062 129.179688 103.796875 129.707031 103.578125 130.15625 Z M 103.566406 130.167969 "/><path style=" stroke:none;fill-rule:nonzero;fill:#3f3f3d;fill-opacity:1;" d="M 161.007812 117.75 C 161.367188 117.75 161.671875 117.625 161.921875 117.375 C 162.171875 117.125 162.296875 116.816406 162.296875 116.453125 C 162.296875 116.109375 162.171875 115.8125 161.921875 115.550781 C 161.671875 115.304688 161.375 115.179688 161.007812 115.179688 C 160.644531 115.179688 160.355469 115.304688 160.097656 115.550781 C 159.835938 115.800781 159.710938 116.109375 159.710938 116.453125 C 159.710938 116.816406 159.835938 117.125 160.097656 117.375 C 160.355469 117.625 160.652344 117.75 161.007812 117.75 Z M 161.007812 117.75 "/><path style=" stroke:none;fill-rule:nonzero;fill:#3f3f3d;fill-opacity:1;" d="M 168.4375 131.171875 C 168.160156 130.808594 167.929688 130.359375 167.746094 129.820312 C 167.5625 129.285156 167.421875 128.671875 167.304688 128 C 167.1875 127.328125 167.082031 126.628906 166.988281 125.898438 C 166.882812 125.121094 166.691406 124.421875 166.410156 123.789062 C 166.132812 123.167969 165.765625 122.628906 165.316406 122.1875 C 164.863281 121.746094 164.324219 121.410156 163.699219 121.171875 C 163.074219 120.933594 162.375 120.816406 161.585938 120.816406 C 160.855469 120.816406 160.183594 120.875 159.558594 121 C 158.933594 121.125 158.328125 121.269531 157.722656 121.449219 L 157.722656 123.167969 C 157.953125 123.089844 158.203125 123.03125 158.472656 122.964844 C 158.742188 122.90625 159.011719 122.851562 159.269531 122.8125 C 159.53125 122.761719 159.789062 122.726562 160.039062 122.695312 C 160.289062 122.667969 160.511719 122.65625 160.710938 122.65625 C 161.710938 122.65625 162.519531 122.839844 163.125 123.195312 C 163.730469 123.550781 164.210938 124.019531 164.566406 124.585938 C 164.921875 125.152344 165.179688 125.792969 165.34375 126.511719 C 165.515625 127.230469 165.652344 127.941406 165.765625 128.640625 C 165.816406 128.9375 165.890625 129.234375 165.96875 129.550781 C 166.054688 129.867188 166.152344 130.175781 166.277344 130.472656 C 166.402344 130.769531 166.546875 131.046875 166.71875 131.308594 C 166.890625 131.566406 167.09375 131.777344 167.3125 131.949219 L 124.375 131.949219 C 123.519531 131.949219 122.757812 131.875 122.085938 131.730469 C 121.414062 131.585938 120.820312 131.375 120.28125 131.097656 C 120.519531 130.453125 120.644531 129.753906 120.644531 128.996094 C 120.644531 128.238281 120.492188 127.453125 120.175781 126.65625 C 119.855469 125.859375 119.445312 125.085938 118.914062 124.316406 C 118.398438 123.550781 117.800781 122.800781 117.136719 122.082031 C 116.472656 121.363281 115.792969 120.683594 115.082031 120.058594 L 113.582031 121.554688 C 114.253906 122.121094 114.917969 122.726562 115.5625 123.359375 C 116.207031 123.992188 116.773438 124.632812 117.273438 125.285156 C 117.773438 125.945312 118.164062 126.597656 118.464844 127.261719 C 118.761719 127.921875 118.914062 128.574219 118.914062 129.21875 C 118.914062 129.648438 118.847656 130.03125 118.714844 130.367188 C 118.578125 130.703125 118.347656 130.992188 118.003906 131.230469 C 117.65625 131.46875 117.195312 131.644531 116.597656 131.769531 C 116.011719 131.890625 115.253906 131.949219 114.320312 131.949219 L 108.996094 131.949219 L 108.996094 133.953125 L 114.734375 133.953125 C 115.820312 133.953125 116.734375 133.828125 117.484375 133.578125 C 118.234375 133.332031 118.839844 132.984375 119.320312 132.535156 C 119.636719 132.753906 119.953125 132.957031 120.28125 133.128906 C 120.605469 133.300781 120.960938 133.445312 121.367188 133.570312 C 121.761719 133.695312 122.203125 133.789062 122.683594 133.859375 C 122.855469 133.886719 123.058594 133.894531 123.25 133.914062 C 123.355469 133.945312 123.472656 133.964844 123.632812 133.964844 L 169.484375 133.964844 L 169.484375 131.882812 C 169.0625 131.777344 168.71875 131.546875 168.4375 131.183594 Z M 168.4375 131.171875 "/><path style=" stroke:none;fill-rule:nonzero;fill:#3f3f3d;fill-opacity:1;" d="M 26.480469 158.003906 C 25.050781 158.550781 23.886719 159.382812 23.003906 160.496094 C 22.117188 161.609375 21.675781 162.960938 21.675781 164.570312 C 21.675781 165.570312 22.003906 166.585938 22.664062 167.59375 C 23.328125 168.609375 24.136719 169.5 25.097656 170.269531 L 25.597656 170.660156 C 26.597656 171.429688 27.402344 172.136719 28.007812 172.78125 C 28.613281 173.421875 28.914062 174.09375 28.914062 174.773438 C 28.914062 175.589844 28.546875 176.375 27.808594 177.132812 C 27.078125 177.890625 26.046875 178.515625 24.722656 178.992188 C 23.394531 179.472656 21.898438 179.714844 20.207031 179.714844 C 18.128906 179.714844 16.34375 179.40625 14.851562 178.800781 C 13.363281 178.1875 12.230469 177.324219 11.441406 176.195312 C 10.652344 175.0625 10.257812 173.71875 10.257812 172.167969 C 10.257812 171.0625 10.429688 169.972656 10.777344 168.898438 C 11.125 167.8125 11.640625 166.84375 12.324219 165.992188 L 7.75 163.488281 C 6.78125 164.78125 6.011719 166.210938 5.453125 167.785156 C 4.894531 169.355469 4.617188 170.929688 4.617188 172.492188 C 4.617188 174.957031 5.300781 177.09375 6.664062 178.90625 C 8.027344 180.71875 9.796875 182.109375 11.960938 183.058594 C 14.304688 184.078125 17.0625 184.585938 20.242188 184.585938 C 22.433594 184.585938 24.65625 184.171875 26.886719 183.339844 C 29.113281 182.503906 30.96875 181.285156 32.429688 179.675781 C 33.902344 178.0625 34.632812 176.15625 34.632812 173.949219 C 34.632812 173.105469 34.265625 172.195312 33.527344 171.21875 C 32.796875 170.238281 31.574219 169.078125 29.875 167.746094 C 28.144531 166.363281 27.277344 165.242188 27.277344 164.371094 C 27.277344 163.5 27.652344 162.828125 28.402344 162.425781 C 29.152344 162.019531 29.988281 161.828125 30.921875 161.828125 C 31.46875 161.828125 32.171875 161.953125 33.015625 162.203125 C 33.863281 162.453125 34.726562 162.777344 35.628906 163.183594 L 36.917969 158.292969 C 34.738281 157.554688 32.777344 157.179688 31.027344 157.179688 C 29.414062 157.179688 27.894531 157.457031 26.460938 158.003906 Z M 26.480469 158.003906 "/><path style=" stroke:none;fill-rule:nonzero;fill:#3f3f3d;fill-opacity:1;" d="M 24.722656 187.375 C 24.300781 187.125 23.828125 186.992188 23.308594 186.992188 C 22.523438 186.992188 21.859375 187.261719 21.328125 187.804688 C 20.792969 188.351562 20.523438 189.003906 20.523438 189.773438 C 20.523438 190.289062 20.648438 190.769531 20.90625 191.191406 C 21.15625 191.613281 21.503906 191.949219 21.933594 192.1875 C 22.367188 192.4375 22.828125 192.5625 23.320312 192.5625 C 23.839844 192.5625 24.320312 192.4375 24.75 192.179688 C 25.183594 191.929688 25.511719 191.585938 25.75 191.152344 C 25.992188 190.722656 26.105469 190.261719 26.105469 189.773438 C 26.105469 189.285156 25.980469 188.824219 25.730469 188.390625 C 25.480469 187.960938 25.144531 187.625 24.730469 187.367188 Z M 24.722656 187.375 "/><path style=" stroke:none;fill-rule:nonzero;fill:#3f3f3d;fill-opacity:1;" d="M 18.1875 187.375 C 17.765625 187.125 17.292969 186.992188 16.765625 186.992188 C 15.976562 186.992188 15.3125 187.261719 14.785156 187.804688 C 14.246094 188.351562 13.976562 189.003906 13.976562 189.773438 C 13.976562 190.289062 14.101562 190.769531 14.363281 191.191406 C 14.613281 191.613281 14.957031 191.949219 15.390625 192.1875 C 15.824219 192.4375 16.285156 192.5625 16.773438 192.5625 C 17.304688 192.5625 17.773438 192.4375 18.207031 192.179688 C 18.640625 191.929688 18.964844 191.585938 19.207031 191.152344 C 19.445312 190.722656 19.5625 190.261719 19.5625 189.773438 C 19.5625 189.285156 19.4375 188.824219 19.1875 188.390625 C 18.9375 187.960938 18.609375 187.625 18.1875 187.367188 Z M 18.1875 187.375 "/><path style=" stroke:none;fill-rule:nonzero;fill:#3f3f3d;fill-opacity:1;" d="M 167.8125 178.832031 C 167.390625 178.582031 166.921875 178.449219 166.402344 178.449219 C 165.613281 178.449219 164.949219 178.714844 164.421875 179.261719 C 163.882812 179.808594 163.613281 180.460938 163.613281 181.226562 C 163.613281 181.746094 163.738281 182.226562 164 182.636719 C 164.25 183.058594 164.59375 183.394531 165.027344 183.636719 C 165.460938 183.882812 165.921875 184.007812 166.410156 184.007812 C 166.929688 184.007812 167.410156 183.882812 167.84375 183.625 C 168.273438 183.367188 168.601562 183.03125 168.84375 182.597656 C 169.082031 182.167969 169.199219 181.707031 169.199219 181.21875 C 169.199219 180.730469 169.074219 180.269531 168.824219 179.839844 C 168.574219 179.40625 168.238281 179.070312 167.824219 178.8125 Z M 167.8125 178.832031 "/><path style=" stroke:none;fill-rule:nonzero;fill:#3f3f3d;fill-opacity:1;" d="M 163.804688 157.148438 L 163.804688 170.230469 L 114.425781 170.230469 C 112.726562 170.210938 111.179688 169.921875 109.785156 169.355469 C 109.863281 168.742188 109.890625 168.246094 109.890625 167.851562 L 109.890625 143.65625 L 104.203125 143.65625 L 104.203125 167.371094 C 104.203125 169.269531 103.386719 170.21875 101.761719 170.21875 L 62.386719 170.21875 C 60.464844 170.21875 58.78125 169.882812 57.332031 169.222656 C 57.496094 168.570312 57.570312 167.871094 57.570312 167.132812 C 57.570312 165.15625 56.832031 163.058594 55.351562 160.832031 C 53.871094 158.609375 51.707031 156.335938 48.875 154.015625 L 44.769531 158.011719 C 47.078125 159.902344 48.875 161.667969 50.132812 163.304688 C 51.390625 164.945312 52.027344 166.355469 52.027344 167.515625 C 52.027344 168.425781 51.746094 169.109375 51.191406 169.546875 C 50.632812 169.988281 49.574219 170.210938 48.019531 170.210938 L 39.53125 170.210938 L 39.53125 174.976562 L 48.019531 174.976562 C 49.554688 174.976562 50.949219 174.785156 52.179688 174.410156 C 53.417969 174.035156 54.457031 173.460938 55.324219 172.695312 C 56.976562 174.132812 59.195312 174.878906 61.964844 174.964844 C 62.078125 174.976562 62.203125 174.984375 62.339844 174.984375 L 103.605469 174.984375 C 105.5 174.984375 107.007812 174.390625 108.140625 173.203125 C 108.957031 173.769531 109.882812 174.210938 110.917969 174.515625 C 111.871094 174.804688 113.003906 174.949219 114.300781 174.976562 C 114.378906 174.976562 114.445312 174.984375 114.53125 174.984375 L 169.496094 174.984375 L 169.496094 157.148438 Z M 163.804688 157.148438 "/><g clip-rule="nonzero" clip-path="url(#f57e0140f3)"><path style=" stroke:none;fill-rule:nonzero;fill:#007672;fill-opacity:1;" d="M 288.648438 104.890625 L 288.648438 123.484375 C 287.714844 124.34375 285.640625 127.15625 282.96875 136.0625 C 282.898438 136.273438 282.640625 136.390625 282.457031 136.246094 C 280.824219 135.007812 273.636719 130.367188 261.632812 134.578125 C 261.351562 134.671875 261.335938 135.066406 261.613281 135.179688 C 263.265625 135.863281 267.160156 137.695312 269.347656 140.175781 C 269.53125 140.367188 269.367188 140.714844 269.089844 140.695312 C 264.503906 140.550781 238.710938 141.203125 218.847656 172.398438 C 218.664062 172.703125 219.027344 173.03125 219.308594 172.835938 C 224.226562 169.394531 241.902344 157.898438 257.382812 159.152344 C 257.710938 159.171875 257.789062 159.625 257.5 159.757812 C 251.933594 162.335938 227.332031 175.839844 221.679688 214.347656 C 221.632812 214.703125 222.105469 214.867188 222.285156 214.558594 C 225.757812 208.453125 239.757812 185.582031 259.132812 177.46875 C 259.441406 177.335938 259.71875 177.710938 259.507812 177.976562 C 255.742188 182.582031 240.902344 203.082031 244.132812 237.007812 C 244.160156 237.351562 244.640625 237.410156 244.757812 237.074219 C 246.785156 230.546875 255.335938 204.847656 269.582031 189.273438 C 269.8125 189.035156 270.203125 189.226562 270.136719 189.53125 C 269.1875 195.410156 264.949219 224.273438 269.992188 246.933594 C 270.078125 247.277344 270.597656 247.238281 270.628906 246.886719 C 271.445312 238.378906 275.125 204.605469 282.6875 194.269531 C 282.757812 194.183594 282.851562 194.136719 282.949219 194.136719 C 282.949219 194.136719 283.042969 194.136719 283.226562 194.117188 L 284.878906 214.800781 L 282.035156 214.800781 L 284.253906 242.503906 L 281.554688 242.503906 L 282.949219 269.859375 C 240.046875 266.761719 206.226562 231.054688 206.226562 187.480469 C 206.226562 143.90625 243.074219 105.082031 288.648438 104.890625 "/></g><g clip-rule="nonzero" clip-path="url(#014d8c8e56)"><path style=" stroke:none;fill-rule:nonzero;fill:#80bc00;fill-opacity:1;" d="M 288.65625 104.890625 L 288.65625 123.484375 C 289.589844 124.34375 291.664062 127.15625 294.335938 136.0625 C 294.402344 136.273438 294.664062 136.390625 294.847656 136.246094 C 296.480469 135.007812 303.667969 130.367188 315.671875 134.578125 C 315.949219 134.671875 315.96875 135.066406 315.691406 135.179688 C 314.039062 135.863281 310.144531 137.695312 307.957031 140.175781 C 307.773438 140.367188 307.9375 140.714844 308.214844 140.695312 C 312.796875 140.550781 338.59375 141.203125 358.457031 172.398438 C 358.640625 172.703125 358.277344 173.03125 357.996094 172.835938 C 353.078125 169.394531 335.402344 157.898438 319.921875 159.152344 C 319.59375 159.171875 319.515625 159.625 319.804688 159.757812 C 325.371094 162.335938 349.972656 175.839844 355.625 214.347656 C 355.671875 214.703125 355.199219 214.867188 355.019531 214.558594 C 351.546875 208.453125 337.546875 185.582031 318.171875 177.46875 C 317.863281 177.335938 317.585938 177.710938 317.796875 177.976562 C 321.5625 182.582031 336.402344 203.082031 333.171875 237.007812 C 333.144531 237.351562 332.664062 237.410156 332.546875 237.074219 C 330.519531 230.546875 321.96875 204.847656 307.722656 189.273438 C 307.492188 189.035156 307.101562 189.226562 307.167969 189.53125 C 308.117188 195.410156 312.355469 224.273438 307.3125 246.933594 C 307.226562 247.277344 306.707031 247.238281 306.675781 246.886719 C 305.859375 238.378906 302.179688 204.605469 294.617188 194.269531 C 294.546875 194.183594 294.453125 194.136719 294.355469 194.136719 C 294.355469 194.136719 294.261719 194.136719 294.078125 194.117188 L 292.425781 214.800781 L 295.269531 214.800781 L 293.050781 242.503906 L 295.75 242.503906 L 294.355469 269.859375 C 337.257812 266.761719 371.078125 231.054688 371.078125 187.480469 C 371.078125 143.90625 334.230469 105.082031 288.65625 104.890625 "/></g><path style=" stroke:none;fill-rule:nonzero;fill:#3f3f3d;fill-opacity:1;" d="M 7.210938 262.4375 C 6.328125 262.066406 5.625 261.527344 5.117188 260.847656 C 4.609375 260.164062 4.320312 259.390625 4.269531 258.507812 L 6.769531 258.507812 C 6.835938 259.234375 7.183594 259.820312 7.789062 260.28125 C 8.394531 260.742188 9.203125 260.972656 10.191406 260.972656 C 11.113281 260.972656 11.835938 260.769531 12.363281 260.359375 C 12.890625 259.953125 13.160156 259.4375 13.160156 258.824219 C 13.160156 258.210938 12.882812 257.710938 12.316406 257.40625 C 11.75 257.097656 10.875 256.789062 9.691406 256.492188 C 8.613281 256.214844 7.730469 255.925781 7.046875 255.628906 C 6.367188 255.332031 5.78125 254.910156 5.300781 254.335938 C 4.808594 253.761719 4.570312 253.003906 4.570312 252.074219 C 4.570312 251.335938 4.789062 250.652344 5.230469 250.03125 C 5.675781 249.417969 6.300781 248.917969 7.117188 248.5625 C 7.933594 248.199219 8.855469 248.015625 9.902344 248.015625 C 11.519531 248.015625 12.816406 248.417969 13.804688 249.234375 C 14.792969 250.050781 15.324219 251.160156 15.398438 252.570312 L 12.988281 252.570312 C 12.941406 251.8125 12.632812 251.199219 12.074219 250.738281 C 11.519531 250.28125 10.769531 250.050781 9.835938 250.050781 C 8.972656 250.050781 8.277344 250.230469 7.769531 250.605469 C 7.261719 250.980469 7 251.460938 7 252.0625 C 7 252.542969 7.15625 252.9375 7.460938 253.242188 C 7.769531 253.550781 8.164062 253.796875 8.632812 253.980469 C 9.105469 254.164062 9.75 254.375 10.585938 254.605469 C 11.632812 254.882812 12.480469 255.160156 13.132812 255.4375 C 13.785156 255.714844 14.351562 256.121094 14.8125 256.664062 C 15.285156 257.210938 15.523438 257.933594 15.542969 258.8125 C 15.542969 259.609375 15.324219 260.320312 14.882812 260.960938 C 14.4375 261.59375 13.816406 262.09375 13.007812 262.457031 C 12.199219 262.820312 11.277344 263.003906 10.230469 263.003906 C 9.113281 263.003906 8.117188 262.8125 7.230469 262.4375 Z M 7.210938 262.4375 "/><path style=" stroke:none;fill-rule:nonzero;fill:#3f3f3d;fill-opacity:1;" d="M 40.597656 256.40625 L 28.96875 256.40625 C 29.058594 257.835938 29.546875 258.957031 30.441406 259.753906 C 31.335938 260.558594 32.421875 260.960938 33.6875 260.960938 C 34.738281 260.960938 35.601562 260.722656 36.304688 260.234375 C 37.003906 259.742188 37.496094 259.101562 37.773438 258.285156 L 40.378906 258.285156 C 39.984375 259.6875 39.207031 260.816406 38.042969 261.691406 C 36.871094 262.5625 35.417969 263.003906 33.6875 263.003906 C 32.304688 263.003906 31.074219 262.699219 29.988281 262.074219 C 28.902344 261.460938 28.046875 260.578125 27.433594 259.4375 C 26.816406 258.296875 26.5 256.980469 26.5 255.476562 C 26.5 253.972656 26.796875 252.65625 27.402344 251.527344 C 28.007812 250.394531 28.855469 249.523438 29.941406 248.917969 C 31.027344 248.3125 32.277344 248.007812 33.699219 248.007812 C 35.121094 248.007812 36.304688 248.304688 37.359375 248.910156 C 38.417969 249.511719 39.242188 250.335938 39.820312 251.382812 C 40.398438 252.4375 40.6875 253.617188 40.6875 254.941406 C 40.6875 255.398438 40.65625 255.878906 40.609375 256.398438 Z M 37.570312 252.074219 C 37.167969 251.410156 36.609375 250.902344 35.910156 250.558594 C 35.207031 250.210938 34.4375 250.039062 33.582031 250.039062 C 32.363281 250.039062 31.324219 250.433594 30.460938 251.210938 C 29.605469 251.988281 29.113281 253.058594 28.988281 254.441406 L 38.175781 254.441406 C 38.175781 253.519531 37.976562 252.734375 37.570312 252.074219 Z M 37.570312 252.074219 "/><path style=" stroke:none;fill-rule:nonzero;fill:#3f3f3d;fill-opacity:1;" d="M 56.601562 248.679688 C 57.390625 248.21875 58.351562 247.988281 59.484375 247.988281 L 59.484375 250.480469 L 58.847656 250.480469 C 56.140625 250.480469 54.785156 251.949219 54.785156 254.882812 L 54.785156 262.773438 L 52.371094 262.773438 L 52.371094 248.257812 L 54.785156 248.257812 L 54.785156 250.613281 C 55.207031 249.78125 55.8125 249.136719 56.601562 248.679688 Z M 56.601562 248.679688 "/><path style=" stroke:none;fill-rule:nonzero;fill:#3f3f3d;fill-opacity:1;" d="M 76.175781 260.539062 L 80.695312 248.246094 L 83.269531 248.246094 L 77.5625 262.765625 L 74.746094 262.765625 L 69.035156 248.246094 L 71.640625 248.246094 Z M 76.175781 260.539062 "/><path style=" stroke:none;fill-rule:nonzero;fill:#3f3f3d;fill-opacity:1;" d="M 94.226562 245.417969 C 93.910156 245.101562 93.746094 244.707031 93.746094 244.25 C 93.746094 243.789062 93.910156 243.402344 94.226562 243.078125 C 94.542969 242.753906 94.9375 242.597656 95.398438 242.597656 C 95.859375 242.597656 96.214844 242.761719 96.523438 243.078125 C 96.832031 243.394531 96.984375 243.789062 96.984375 244.25 C 96.984375 244.707031 96.832031 245.09375 96.523438 245.417969 C 96.214844 245.734375 95.839844 245.898438 95.398438 245.898438 C 94.957031 245.898438 94.554688 245.734375 94.226562 245.417969 Z M 96.5625 248.246094 L 96.5625 262.765625 L 94.148438 262.765625 L 94.148438 248.246094 Z M 96.5625 248.246094 "/><path style=" stroke:none;fill-rule:nonzero;fill:#3f3f3d;fill-opacity:1;" d="M 109.171875 251.554688 C 109.777344 250.433594 110.613281 249.558594 111.679688 248.945312 C 112.746094 248.332031 113.976562 248.015625 115.359375 248.015625 C 117.148438 248.015625 118.617188 248.449219 119.78125 249.3125 C 120.941406 250.175781 121.703125 251.371094 122.078125 252.917969 L 119.472656 252.917969 C 119.222656 252.035156 118.742188 251.335938 118.023438 250.828125 C 117.300781 250.316406 116.417969 250.058594 115.351562 250.058594 C 113.964844 250.058594 112.851562 250.527344 112.003906 251.476562 C 111.160156 252.417969 110.726562 253.761719 110.726562 255.488281 C 110.726562 257.210938 111.148438 258.582031 112.003906 259.542969 C 112.851562 260.5 113.964844 260.972656 115.351562 260.972656 C 116.40625 260.972656 117.300781 260.722656 118.003906 260.234375 C 118.714844 259.742188 119.195312 259.035156 119.464844 258.113281 L 122.066406 258.113281 C 121.671875 259.601562 120.90625 260.789062 119.730469 261.671875 C 118.558594 262.5625 117.109375 263.015625 115.351562 263.015625 C 113.964844 263.015625 112.746094 262.707031 111.667969 262.082031 C 110.601562 261.46875 109.765625 260.585938 109.160156 259.464844 C 108.554688 258.335938 108.257812 257.011719 108.257812 255.496094 C 108.257812 253.980469 108.554688 252.6875 109.160156 251.566406 Z M 109.171875 251.554688 "/><path style=" stroke:none;fill-rule:nonzero;fill:#3f3f3d;fill-opacity:1;" d="M 146.96875 256.40625 L 135.339844 256.40625 C 135.425781 257.835938 135.917969 258.957031 136.808594 259.753906 C 137.703125 260.558594 138.789062 260.960938 140.058594 260.960938 C 141.105469 260.960938 141.972656 260.722656 142.671875 260.234375 C 143.375 259.742188 143.863281 259.101562 144.144531 258.285156 L 146.746094 258.285156 C 146.355469 259.6875 145.574219 260.816406 144.414062 261.691406 C 143.25 262.5625 141.789062 263.003906 140.058594 263.003906 C 138.675781 263.003906 137.445312 262.699219 136.359375 262.074219 C 135.273438 261.460938 134.417969 260.578125 133.800781 259.4375 C 133.1875 258.296875 132.871094 256.980469 132.871094 255.476562 C 132.871094 253.972656 133.167969 252.65625 133.773438 251.527344 C 134.378906 250.394531 135.226562 249.523438 136.3125 248.917969 C 137.398438 248.3125 138.644531 248.007812 140.066406 248.007812 C 141.492188 248.007812 142.671875 248.304688 143.730469 248.910156 C 144.789062 249.511719 145.613281 250.335938 146.191406 251.382812 C 146.765625 252.4375 147.054688 253.617188 147.054688 254.941406 C 147.054688 255.398438 147.027344 255.878906 146.976562 256.398438 Z M 143.941406 252.074219 C 143.539062 251.410156 142.980469 250.902344 142.277344 250.558594 C 141.578125 250.210938 140.808594 250.039062 139.953125 250.039062 C 138.734375 250.039062 137.695312 250.433594 136.828125 251.210938 C 135.972656 251.988281 135.484375 253.058594 135.359375 254.441406 L 144.546875 254.441406 C 144.546875 253.519531 144.34375 252.734375 143.941406 252.074219 Z M 143.941406 252.074219 "/><path style=" stroke:none;fill-rule:nonzero;fill:#3f3f3d;fill-opacity:1;" d="M 160.886719 262.4375 C 160 262.066406 159.300781 261.527344 158.789062 260.847656 C 158.28125 260.164062 157.992188 259.390625 157.945312 258.507812 L 160.441406 258.507812 C 160.511719 259.234375 160.855469 259.820312 161.460938 260.28125 C 162.066406 260.742188 162.875 260.972656 163.863281 260.972656 C 164.785156 260.972656 165.507812 260.769531 166.035156 260.359375 C 166.566406 259.953125 166.832031 259.4375 166.832031 258.824219 C 166.832031 258.210938 166.554688 257.710938 165.988281 257.40625 C 165.421875 257.097656 164.546875 256.789062 163.363281 256.492188 C 162.289062 256.214844 161.402344 255.925781 160.722656 255.628906 C 160.039062 255.332031 159.453125 254.910156 158.972656 254.335938 C 158.480469 253.761719 158.242188 253.003906 158.242188 252.074219 C 158.242188 251.335938 158.464844 250.652344 158.90625 250.03125 C 159.347656 249.417969 159.972656 248.917969 160.789062 248.5625 C 161.605469 248.199219 162.527344 248.015625 163.574219 248.015625 C 165.191406 248.015625 166.488281 248.417969 167.476562 249.234375 C 168.46875 250.050781 168.996094 251.160156 169.074219 252.570312 L 166.660156 252.570312 C 166.613281 251.8125 166.304688 251.199219 165.746094 250.738281 C 165.191406 250.28125 164.441406 250.050781 163.507812 250.050781 C 162.644531 250.050781 161.953125 250.230469 161.441406 250.605469 C 160.933594 250.980469 160.671875 251.460938 160.671875 252.0625 C 160.671875 252.542969 160.828125 252.9375 161.132812 253.242188 C 161.441406 253.550781 161.835938 253.796875 162.308594 253.980469 C 162.777344 254.164062 163.421875 254.375 164.257812 254.605469 C 165.304688 254.882812 166.152344 255.160156 166.804688 255.4375 C 167.457031 255.714844 168.027344 256.121094 168.488281 256.664062 C 168.957031 257.210938 169.199219 257.933594 169.21875 258.8125 C 169.21875 259.609375 168.996094 260.320312 168.554688 260.960938 C 168.113281 261.59375 167.488281 262.09375 166.679688 262.457031 C 165.871094 262.820312 164.949219 263.003906 163.902344 263.003906 C 162.789062 263.003906 161.789062 262.8125 160.902344 262.4375 Z M 160.886719 262.4375 "/><path style=" stroke:none;fill-rule:nonzero;fill:#3f3f3d;fill-opacity:1;" d="M 8.132812 208.777344 C 9.789062 205.625 13.566406 204.117188 16.871094 204.117188 C 23.53125 204.117188 28.671875 208.355469 28.671875 216.179688 C 28.671875 224.003906 23.519531 228.242188 16.824219 228.242188 C 13.371094 228.242188 9.96875 226.738281 8.132812 223.582031 L 7.941406 227.820312 L 4.261719 227.820312 L 4.261719 196.773438 L 8.132812 196.773438 L 8.132812 208.789062 Z M 8.328125 216.132812 C 8.328125 221.222656 11.960938 224.617188 16.59375 224.617188 C 21.222656 224.617188 24.808594 221.550781 24.808594 216.179688 C 24.808594 210.8125 21.128906 207.742188 16.59375 207.742188 C 12.054688 207.742188 8.328125 211.136719 8.328125 216.132812 "/><path style=" stroke:none;fill-rule:nonzero;fill:#3f3f3d;fill-opacity:1;" d="M 55.878906 227.90625 L 55.785156 223.667969 C 53.9375 226.871094 50.402344 228.378906 47.191406 228.378906 C 40.484375 228.378906 35.246094 223.757812 35.246094 216.171875 C 35.246094 208.585938 40.578125 204.109375 47.238281 204.15625 C 50.738281 204.15625 54.179688 205.757812 55.878906 208.777344 L 55.929688 204.539062 L 59.703125 204.539062 L 59.703125 227.8125 L 55.976562 227.8125 Z M 47.382812 207.839844 C 42.75 207.839844 39.023438 211.136719 39.023438 216.316406 C 39.023438 221.492188 42.75 224.839844 47.382812 224.839844 C 58.617188 224.839844 58.617188 207.78125 47.433594 207.78125 L 47.382812 207.828125 Z M 47.382812 207.839844 "/><path style=" stroke:none;fill-rule:nonzero;fill:#3f3f3d;fill-opacity:1;" d="M 69.441406 196.761719 L 73.3125 196.761719 L 73.3125 227.8125 L 69.441406 227.8125 Z M 69.441406 196.761719 "/><path style=" stroke:none;fill-rule:nonzero;fill:#3f3f3d;fill-opacity:1;" d="M 102.210938 227.90625 L 102.117188 223.667969 C 100.269531 226.871094 96.734375 228.378906 93.523438 228.378906 C 86.816406 228.378906 81.578125 223.757812 81.578125 216.171875 C 81.578125 208.585938 86.914062 204.109375 93.574219 204.15625 C 97.070312 204.15625 100.511719 205.757812 102.210938 208.777344 L 102.261719 204.539062 L 106.039062 204.539062 L 106.039062 227.8125 L 102.308594 227.8125 Z M 93.714844 207.839844 C 89.085938 207.839844 85.355469 211.136719 85.355469 216.316406 C 85.355469 221.492188 89.085938 224.839844 93.714844 224.839844 C 104.953125 224.839844 104.953125 207.78125 93.765625 207.78125 L 93.714844 207.828125 Z M 93.714844 207.839844 "/><path style=" stroke:none;fill-rule:nonzero;fill:#3f3f3d;fill-opacity:1;" d="M 138.445312 196.722656 L 138.445312 227.773438 L 134.8125 227.773438 L 134.621094 223.535156 C 132.726562 226.738281 129.332031 228.242188 125.882812 228.242188 C 119.222656 228.242188 114.082031 223.863281 114.082031 216.179688 C 114.082031 208.5 119.234375 204.117188 125.84375 204.117188 C 129.152344 204.117188 132.925781 205.625 134.582031 208.777344 L 134.582031 196.761719 L 138.40625 196.761719 L 138.453125 196.714844 Z M 126.171875 207.703125 C 121.636719 207.703125 117.953125 210.675781 117.953125 216.140625 C 117.953125 221.609375 121.636719 224.582031 126.171875 224.582031 C 130.707031 224.582031 134.4375 221.1875 134.4375 216.105469 C 134.4375 211.023438 130.753906 207.714844 126.125 207.714844 L 126.171875 207.714844 Z M 126.171875 207.703125 "/><path style=" stroke:none;fill-rule:nonzero;fill:#3f3f3d;fill-opacity:1;" d="M 164.941406 204.539062 L 159.789062 216.699219 L 157.289062 223.296875 L 154.742188 216.652344 L 150.148438 204.539062 L 145.757812 204.539062 L 155.167969 227.484375 L 151.160156 236.777344 L 155.3125 236.777344 L 169.1875 204.539062 Z M 164.941406 204.539062 "/></g></svg>